HIERARCHY
ROOT Hips
{
 OFFSET 0.000000 0.000000 0.000000
 CHANNELS 6 Xposition Yposition Zposition Yrotation Xrotation Zrotation
 JOINT Chest
 {
  OFFSET 0.000000 10.678932 0.006280
  CHANNELS 3 Yrotation Xrotation Zrotation
  JOINT Chest2
  {
   OFFSET 0.000000 10.491159 -0.011408
   CHANNELS 3 Yrotation Xrotation Zrotation
   JOINT Chest3
   {
    OFFSET 0.000000 9.479342 0.000000
    CHANNELS 3 Yrotation Xrotation Zrotation
    JOINT Chest4
    {
     OFFSET 0.000000 9.479342 0.000000
     CHANNELS 3 Yrotation Xrotation Zrotation
     JOINT Neck
     {
      OFFSET 0.000000 13.535332 0.000000
      CHANNELS 3 Yrotation Xrotation Zrotation
      JOINT Head
      {
       OFFSET 0.000000 8.819083 -0.027129
       CHANNELS 3 Yrotation Xrotation Zrotation
       End Site
       {
        OFFSET 0.000000 16.966594 -0.014170
       }
      }
     }
     JOINT RightCollar
     {
      OFFSET -3.012546 7.545150 0.000000
      CHANNELS 3 Yrotation Xrotation Zrotation
      JOINT RightShoulder
      {
       OFFSET -13.683099 0.000000 0.000000
       CHANNELS 3 Yrotation Xrotation Zrotation
       JOINT RightElbow
       {
        OFFSET -26.359998 0.000000 0.000000
        CHANNELS 3 Yrotation Xrotation Zrotation
        JOINT RightWrist
        {
         OFFSET -21.746691 0.000000 0.008601
         CHANNELS 3 Yrotation Xrotation Zrotation
         End Site
         {
          OFFSET -16.348058 0.000000 0.000000
         }
        }
       }
      }
     }
     JOINT LeftCollar
     {
      OFFSET 3.012546 7.545150 0.000000
      CHANNELS 3 Yrotation Xrotation Zrotation
      JOINT LeftShoulder
      {
       OFFSET 13.683099 0.000000 0.000000
       CHANNELS 3 Yrotation Xrotation Zrotation
       JOINT LeftElbow
       {
        OFFSET 26.359998 0.000000 0.000000
        CHANNELS 3 Yrotation Xrotation Zrotation
        JOINT LeftWrist
        {
         OFFSET 21.746691 0.000000 0.008601
         CHANNELS 3 Yrotation Xrotation Zrotation
         End Site
         {
          OFFSET 16.348058 0.000000 0.000000
         }
        }
       }
      }
     }
    }
   }
  }
 }
 JOINT RightHip
 {
  OFFSET -8.622479 -0.030774 -0.003140
  CHANNELS 3 Yrotation Xrotation Zrotation
  JOINT RightKnee
  {
   OFFSET 0.000000 -37.209160 -0.002630
   CHANNELS 3 Yrotation Xrotation Zrotation
   JOINT RightAnkle
   {
    OFFSET 0.000000 -37.343279 -0.058479
    CHANNELS 3 Yrotation Xrotation Zrotation
    JOINT RightToe
    {
     OFFSET 0.000000 -8.903465 15.088070
     CHANNELS 3 Yrotation Xrotation Zrotation
     End Site
     {
      OFFSET 0.000000 -1.471739 6.884388
     }
    }
   }
  }
 }
 JOINT LeftHip
 {
  OFFSET 8.622479 -0.030774 -0.003140
  CHANNELS 3 Yrotation Xrotation Zrotation
  JOINT LeftKnee
  {
   OFFSET 0.000000 -37.209160 -0.002630
   CHANNELS 3 Yrotation Xrotation Zrotation
   JOINT LeftAnkle
   {
    OFFSET 0.000000 -37.343279 -0.058479
    CHANNELS 3 Yrotation Xrotation Zrotation
    JOINT LeftToe
    {
     OFFSET 0.000000 -8.903465 15.088070
     CHANNELS 3 Yrotation Xrotation Zrotation
     End Site
     {
      OFFSET 0.000000 -1.471739 6.884388
     }
    }
   }
  }
 }
}
MOTION
Frames: 13
Frame Time: 0.025000
16.207637 80.002108 -160.189358 -141.082624 -8.353658 -6.417956 -1.291962 9.906621 1.214457 -0.105434 0.721355 0.096469 -0.163299 1.120847 0.149321 -1.186204 8.612091 1.071119 -5.707838 14.587785 2.791760 -11.775727 -8.578369 7.412519 -4.699671 -3.014210 -13.328590 21.501975 -37.784582 38.423246 49.750695 -17.136509 -6.329343 -3.109249 -4.746654 -16.746576 -4.452380 -8.054476 7.870116 5.829526 -19.499547 -56.526947 -69.900869 -14.256497 -6.381475 12.139022 -0.215607 23.687038 -2.557109 5.342004 -8.945605 -4.945217 24.793637 0.548207 -2.900983 -18.310062 9.888004 0.056066 -0.238022 -0.178935 -2.145808 -17.211552 37.343648 26.913390 54.752025 3.601467 0.314202 8.463929 -20.864616 -0.789713 -24.860151 3.367700
15.470835 79.884976 -159.892427 -145.515445 -8.419019 -4.783318 0.437160 9.872441 0.798275 0.028893 0.703644 0.051778 0.045268 1.095650 0.080783 0.398906 8.583765 0.660741 -5.772097 14.701204 2.034996 -11.599563 -8.454523 6.008605 -4.723826 -1.518521 -11.041737 20.222143 -37.001405 45.129441 46.485828 -16.141063 -3.197451 -2.553171 -5.263210 -18.095070 -4.663057 -9.467800 10.278973 9.440409 -24.362853 -56.395914 -79.697867 -18.343975 -2.020506 13.425066 0.465184 23.356344 -4.073454 2.993596 -11.419233 -0.812661 25.962481 0.544063 -1.018325 -18.759372 10.252740 0.073022 -0.017141 -0.164560 -8.103560 -13.852078 34.628690 21.348039 54.933999 3.622893 -1.163297 8.375252 -23.444027 -0.035052 -26.346247 0.192122
14.734306 79.616556 -159.703120 -150.344367 -8.133684 -3.211349 2.063534 9.880318 0.605748 0.148611 0.716354 0.026392 0.231111 1.113254 0.041818 1.811023 8.558660 0.440537 -5.655014 14.377035 1.092344 -11.052478 -9.171292 4.235578 -3.370218 -0.448348 -7.667743 17.551166 -37.212658 49.590289 40.040039 -12.822582 2.496489 -1.797345 -4.764586 -19.140773 -4.702265 -11.397825 12.939566 13.496796 -28.816903 -56.727408 -87.533401 -20.595435 2.195945 13.918060 0.706727 23.489277 -5.384473 -0.305374 -13.310870 2.980213 27.915461 0.131920 1.475060 -19.570068 10.492924 0.059245 0.118299 -0.122829 -14.291169 -10.854047 31.055923 11.837267 55.076759 0.764968 -1.682464 7.192537 -24.211592 0.619170 -26.690504 -3.485931
13.938564 79.194748 -159.509610 -155.229656 -7.775534 -1.792265 3.844673 9.816295 0.777995 0.290041 0.752288 0.028797 0.448507 1.162763 0.046121 3.326528 8.498964 0.552155 -5.619984 13.876872 -0.057259 -10.578948 -10.212757 2.111251 -1.490824 -0.910600 -4.391938 16.585535 -34.679127 51.206128 33.890554 -9.560761 5.610783 -1.262100 -4.433366 -19.601980 -4.311291 -13.775527 15.455965 17.093768 -32.727445 -57.714101 -91.087378 -24.231632 3.973345 14.188971 0.255486 23.931365 -6.457871 -3.883697 -14.647184 6.798622 29.992373 -0.393363 3.925968 -20.405256 10.870611 0.036950 0.220179 -0.181470 -19.808465 -8.533232 26.952593 3.500549 55.380644 -0.971317 -2.818440 5.251366 -23.213324 0.805632 -27.028462 -6.685310
13.247014 78.781400 -159.528833 -159.604184 -7.763798 -0.542280 5.796527 9.954466 1.332331 0.477408 0.839352 0.052459 0.730419 1.283362 0.083056 4.939806 8.532186 0.869375 -5.888301 13.245508 -1.485905 -10.553558 -11.484935 -0.424826 -0.298761 -1.821796 -2.408676 16.510096 -30.515639 51.715866 30.080728 -10.803331 6.215340 -0.603287 -4.621445 -20.204058 -3.708744 -16.100240 17.799721 18.600266 -33.798467 -58.478413 -92.713863 -28.490277 4.783715 14.336757 -0.096512 24.025118 -8.063656 -6.928888 -15.481992 11.113092 31.636148 -0.956763 5.844673 -21.225230 11.574958 0.024974 0.389931 -0.326055 -23.734188 -6.940321 22.699131 -4.325558 55.601553 -1.855247 -4.599293 3.291457 -21.630046 0.648437 -27.733484 -8.057967
12.578568 78.409657 -159.570102 -162.899188 -7.313326 0.602188 7.209763 9.750643 1.730625 0.626019 0.874614 0.093042 0.951304 1.327781 0.145066 6.090864 8.317666 1.290540 -6.268262 12.713743 -3.030042 -10.663255 -12.561140 -3.158970 0.020384 -1.543527 -1.509652 16.273883 -28.341502 52.202853 27.450814 -11.086061 6.547677 -0.198773 -4.542784 -20.590403 -3.060452 -16.846281 20.038161 17.772326 -31.957266 -57.860762 -95.066865 -32.776956 6.764526 13.722828 -0.635017 24.003582 -7.264128 -9.391641 -16.401132 12.833518 33.316192 -1.218189 7.090682 -22.071267 12.059250 -0.044411 0.402733 -0.277421 -30.224699 -5.791550 17.903187 -8.108492 56.533742 -1.188411 -6.131206 1.498087 -20.410028 0.052518 -27.577578 -6.547267
11.999028 78.124442 -159.295069 -165.098891 -7.234248 1.607093 8.117527 9.783336 1.956418 0.727571 0.925663 0.127083 1.099029 1.396503 0.196344 6.719798 8.322902 1.592360 -6.710961 12.452308 -4.341202 -10.963997 -13.108991 -5.452758 0.042268 -1.578325 -0.908278 15.496789 -27.301168 52.524564 25.181251 -9.993408 6.921464 0.059145 -4.652052 -20.682524 -2.616366 -17.289528 20.821476 15.908833 -29.810516 -55.967651 -96.247832 -34.706134 8.265730 13.837971 -1.063909 23.798482 -3.959044 -10.566761 -17.578292 12.986654 35.078052 -0.875217 6.549082 -22.404946 12.429597 -0.088886 0.071118 -0.051525 -36.203721 -5.507936 14.412857 -12.754850 57.571237 -3.501381 -6.812626 0.273473 -18.995630 -0.373376 -28.745829 -4.566467
11.547054 77.895547 -158.778191 -166.277363 -7.340053 2.609236 8.552473 10.034391 1.859815 0.773288 0.951709 0.131067 1.164854 1.431789 0.202176 6.972933 8.353455 1.617575 -6.860646 12.351112 -5.030833 -10.959627 -13.327940 -6.698235 -0.100881 -1.466553 -1.047126 14.865405 -26.698742 52.691521 23.370440 -10.548277 6.720953 0.149705 -4.661693 -20.680602 -2.489543 -17.466947 21.319400 15.403869 -29.212394 -55.304681 -94.906783 -35.537243 7.920012 14.076439 -1.062146 24.045492 -0.849618 -11.028875 -18.656753 13.080901 36.492039 -0.682561 4.983859 -22.680341 12.824152 -0.099216 -0.034354 0.261733 -40.211729 -5.989481 12.676097 -12.891063 58.583645 -5.260529 -8.064453 -0.893792 -16.823385 -0.461655 -27.706709 -2.749827
11.326613 77.356571 -158.245977 -166.270565 -7.414703 2.852466 8.537002 10.194674 2.107307 0.775054 0.973726 0.109416 1.166341 1.463721 0.169544 6.925539 8.494010 1.421873 -6.948381 12.181346 -5.178163 -11.066243 -13.648367 -6.934276 -0.280866 -1.739082 -1.157459 13.886867 -26.610099 52.368647 21.721278 -10.521287 6.460382 0.120011 -4.580583 -20.581360 -2.979128 -17.389383 21.677879 15.095690 -29.778564 -55.112150 -93.203320 -37.272373 8.174704 13.809919 -0.944513 24.730726 -0.393750 -11.670131 -18.477349 13.925647 37.759599 -1.235473 3.588872 -23.371907 13.156244 -0.155964 0.278641 0.511843 -40.272248 -5.752540 13.053712 -9.661950 58.244188 -4.845114 -9.599941 -1.456344 -13.962846 -0.373593 -26.120577 -2.677691
11.020646 77.206133 -157.908916 -165.546915 -7.608840 3.611114 8.207534 10.593675 1.630983 0.747762 1.007707 0.073795 1.124599 1.514359 0.115910 6.643044 8.779376 1.101235 -7.083902 11.902759 -5.073621 -11.373540 -14.158325 -6.663697 -0.265986 -2.119399 -1.458531 13.129170 -26.464071 51.408852 20.794838 -10.640506 5.856328 -0.053331 -4.242736 -20.361543 -3.888131 -17.358155 21.586854 14.663579 -30.892529 -54.824237 -91.483612 -38.179363 8.924489 13.450045 -0.877216 25.194416 -1.198729 -11.799022 -19.208276 14.728689 38.076611 -1.549614 2.949035 -23.620371 13.158348 -0.177372 0.420486 0.594343 -36.748758 -5.982377 13.615948 -7.186551 56.940978 -3.380100 -11.738137 -2.284997 -11.389199 0.128533 -27.505045 -3.672439
10.765104 77.071604 -158.196060 -164.396674 -7.901210 3.994328 8.080718 10.966402 1.403839 0.707901 1.027628 0.048156 1.064994 1.545136 0.077236 6.302662 9.001704 0.865405 -7.316364 11.714834 -4.821278 -11.931359 -14.489614 -6.071234 -0.002634 -2.227674 -2.085337 13.170673 -26.251944 50.132653 19.736098 -11.098381 4.656876 -0.386072 -3.891681 -20.147806 -5.405812 -17.342276 21.351957 14.030749 -32.593521 -54.590899 -88.935421 -39.194758 8.648745 13.216721 -0.921970 25.965999 -1.765211 -10.987661 -20.142360 13.459565 37.954850 -1.814393 3.494096 -23.957661 12.981108 -0.248823 0.470527 0.347022 -30.701981 -6.439078 14.740827 -7.935289 54.801723 -3.028710 -14.250401 -2.397679 -9.640718 0.547406 -30.263492 -4.356651
10.583506 77.606107 -158.439035 -162.736313 -8.488457 4.087723 7.990176 11.501957 1.265078 0.642814 1.015557 0.048754 0.969596 1.530936 0.077875 5.854373 9.095738 0.854243 -7.612229 11.721434 -4.502077 -12.636566 -14.450792 -5.333687 0.780468 -2.214335 -2.747419 13.625699 -26.262754 49.013273 18.488050 -11.611263 3.828498 -0.776281 -3.630868 -19.862026 -7.391933 -16.924937 21.277345 12.440895 -35.305784 -54.371258 -85.893016 -40.719853 7.832121 12.574371 -1.138585 27.412778 -2.906515 -9.150168 -21.041834 11.675925 36.202089 -1.898294 4.406761 -22.952718 12.848061 -0.216630 0.127655 0.031197 -24.622581 -6.021378 16.905077 -9.385435 52.326354 -5.041995 -17.444622 -2.267214 -7.911389 0.487901 -31.180958 -3.947816
10.688051 78.149638 -157.879566 -159.195166 -8.195876 3.950431 6.538683 10.903683 0.693066 0.558020 0.973005 0.078682 0.845748 1.473361 0.122871 5.310162 9.056071 1.114088 -7.863357 11.955094 -4.051316 -13.302836 -13.977720 -4.382192 1.820295 -1.610991 -3.234120 15.256131 -26.084806 48.256120 18.738564 -12.666686 2.862084 -1.106459 -3.447557 -19.479632 -9.959817 -15.888445 21.374412 9.326163 -38.369559 -54.291661 -83.770106 -39.885475 7.534608 12.227206 -0.986707 28.636915 -5.661957 -8.323598 -21.809641 10.222456 33.799327 -1.766130 4.673629 -21.386965 13.002685 -0.107302 0.054836 -0.167766 -22.006502 -7.251672 20.268233 -7.211573 51.246361 -6.818054 -18.544926 1.878870 -11.056544 0.201495 -33.429585 -2.179202
